# xmcd
#
# Track frame offsets:
#	150
#	13425
#	24671
#	31831
#	40658
#	54132
#	64223
#	82898
#	96526
#	106088
#	118575
#	124253
#	136485
#	161918
#	179031
#	199913
#	235028
#	247084
#	278648
#	301572
#	323250
#
# Disc length: 4447 seconds
#
# Revision: 0
# Processed by: cddbd v1.5PL3 Copyright (c) Steve Scherf et al.
# Submitted via: dBpowerAMP V4.0
#
DISCID=1b115d15
DTITLE=Prime Time with Jan Sutherland - Roots of the Blues
DYEAR=1997
DGENRE=Blues
TTITLE0=Field Holler/Shanty
TTITLE1=Every Night When The Sun Goes In
TTITLE2=Sugar Babe
TTITLE3=Told My Captain
TTITLE4=Alberta
TTITLE5=Corinna Corinna
TTITLE6=Whining Boy
TTITLE7=Trouble In Mind
TTITLE8=Wandering
TTITLE9=Midnight Special
TTITLE10=His Eye Is On The Sparrow
TTITLE11=Young Woman's Blues
TTITLE12=Weeping Willow Blues
TTITLE13=Right key In The Wrong Keyhole
TTITLE14=Drop A Little Sugar In My Bowl
TTITLE15=Atlanta Blues
TTITLE16=Beale Street Blues
TTITLE17=Garden Of Memories
TTITLE18=Menopause Blues
TTITLE19=House Of The Rising Sun
TTITLE20=Bottle Up and Go
EXTD=
EXTT0=
EXTT1=
EXTT2=
EXTT3=
EXTT4=
EXTT5=
EXTT6=
EXTT7=
EXTT8=
EXTT9=
EXTT10=
EXTT11=
EXTT12=
EXTT13=
EXTT14=
EXTT15=
EXTT16=
EXTT17=
EXTT18=
EXTT19=
EXTT20=
PLAYORDER=
